<?xml version="1.0" encoding="UTF-8"?>
<svg id="Layer_1" data-name="Layer 1" xmlns="http://www.w3.org/2000/svg" version="1.1" viewBox="0 0 50 50">
  <defs>
    <style>
      .cls-1 {
        fill: #fff;
        stroke-width: 0px;
      }
    </style>
  </defs>
  <path class="cls-1" d="M49.6,29.7c0-.4.1-.8.2-1.2h0c.2-1.1.2-2.3.2-3.4s0-2.3-.2-3.4h0s0,0,0,0c0-.4-.1-.8-.2-1.2,0,0,0,0,0,0,0-.4-.2-.8-.3-1.2,0,0,0,0,0,0h0c-.4-1.9-1.1-3.6-1.9-5.3,0,0,0-.1,0-.2-.6-1.2-1.3-2.4-2.2-3.5h0s0,0,0,0c-.3-.4-.5-.7-.8-1,0,0,0,0,0,0h0c-3.6-4.4-8.7-7.5-14.4-8.6h0C28.3.2,26.7,0,25,0,17.2,0,10.3,3.6,5.7,9.1h0s0,0,0,0c-.4.4-.7.9-1,1.3,0,0-.1.2-.2.2-1,1.5-1.9,3.1-2.6,4.7,0,0,0,0,0,0h0c-.5,1.2-.9,2.4-1.2,3.7h0s0,0,0,0c0,.4-.2.8-.3,1.2,0,0,0,0,0,0,0,.4-.1.8-.2,1.2,0,0,0,0,0,0H.2c-.2,1.1-.2,2.3-.2,3.4s0,2.3.2,3.4H.2c0,.4.1.8.2,1.2,0,0,0,0,0,0,.4,2.3,1.2,4.5,2.2,6.5,0,0,0,.1,0,.2.8,1.6,1.8,3.1,2.9,4.5,0,0,0,0,0,0h0c4.6,5.6,11.5,9.1,19.3,9.1s3.3-.2,4.9-.5h0c6.3-1.3,11.8-4.9,15.5-10,0,0,.1-.2.2-.2,1-1.5,1.9-3,2.6-4.7h0c.6-1.6,1.1-3.2,1.5-4.9,0,0,0,0,0,0ZM47.2,19.1h-5.3l4.4-2.7c.3.9.6,1.7.9,2.7ZM44.7,13.2l-9.9,5.9h-4.7l13.2-7.9c.5.6.9,1.3,1.3,2ZM42.6,10.2l-12.7,7.6V2.5c5,1.1,9.5,3.8,12.7,7.6ZM20.1,2.5v15.2l-12.7-7.6c3.2-3.8,7.6-6.5,12.7-7.6ZM15.3,19.1h-4.7l-6.4-3.8c.3-.7.7-1.5,1.1-2.1l10,6ZM3.6,16.5l4.4,2.6H2.8c.2-.9.5-1.8.9-2.6ZM3.6,33.5c-.3-.9-.6-1.7-.9-2.6h5.2l-4.4,2.6ZM15.2,30.9h4.7l-13.3,8c-.5-.6-.9-1.3-1.4-2l9.9-6ZM7.4,39.8l12.7-7.6v15.2c-5-1.1-9.4-3.8-12.7-7.6ZM22.2,47.8v-19.4H2.3c-.2-1.1-.3-2.3-.3-3.4s0-2.3.3-3.4h19.9V2.2c.9-.1,1.9-.2,2.8-.2s2,0,2.9.2v19.4h19.8c.2,1.1.3,2.3.3,3.4s0,2.3-.3,3.4h-19.8v19.4c-1,.1-1.9.2-2.9.2s-1.9,0-2.8-.2ZM39.6,30.9l6.3,3.8c-.3.7-.7,1.5-1.1,2.1l-9.9-5.9h4.7ZM29.9,47.5v-15.2l12.7,7.6c-3.2,3.8-7.6,6.5-12.7,7.6ZM41.9,30.9h5.3c-.2.9-.5,1.8-.9,2.7l-4.4-2.7Z"/>
</svg>