<?xml version="1.0" encoding="utf-8"?>
<!-- Generator: Adobe Illustrator 28.2.0, SVG Export Plug-In . SVG Version: 6.00 Build 0)  -->
<svg version="1.1" id="Layer_1" xmlns="http://www.w3.org/2000/svg" xmlns:xlink="http://www.w3.org/1999/xlink" x="0px" y="0px"
	 viewBox="0 0 283.46 130.04" style="enable-background:new 0 0 283.46 130.04;" xml:space="preserve">
<style type="text/css">
	.st0{fill:#F4BA39;}
</style>
<g>
	<polygon class="st0" points="93.82,0 93.82,20.21 141.74,60.5 153.99,50.2 	"/>
	<polygon class="st0" points="189.64,0 189.64,21.3 171.03,36.21 189.64,51.48 189.64,72.44 144.2,34.94 	"/>
	<polygon class="st0" points="93.82,26.67 93.82,73.69 122.95,51.29 	"/>
	<path class="st0" d="M48.04,129.11l11.99-25.7l11.49,25.7h-2.71l-3.49-8.19H54.61l-4.05,8.19H48.04z M55.43,118.81h8.8l-4.37-10.11
		L55.43,118.81z"/>
	<path class="st0" d="M108.87,129.11h-2.93l-8.94-11.54h-1.23v11.54h-2.77v-24.2h5.6c3.3,0,5.78,0.12,7.42,1.21
		c1.64,1.09,2.47,3.17,2.47,5.38c0,1.89-0.71,3.37-2.11,4.45c-1.41,1.08-4.23,1.62-6.7,1.62L108.87,129.11z M95.76,106.83v8.94h2.79
		c2.58,0,4.81-0.33,5.83-0.98c1.02-0.66,1.95-1.77,1.95-3.35c0-1.66-0.53-2.85-1.58-3.55c-1.06-0.71-3.69-1.06-6.2-1.06H95.76z"/>
	<path class="st0" d="M283.46,129.11h-2.93l-8.94-11.54h-1.23v11.54h-2.77v-24.2h5.6c3.3,0,5.78,0.12,7.42,1.21
		c1.64,1.09,2.47,3.17,2.47,5.38c0,1.89-0.71,3.37-2.11,4.45c-1.41,1.08-4.23,1.62-6.7,1.62L283.46,129.11z M270.36,107.09v8.3h2.79
		c2.58,0,4.81,0.05,5.83-0.61c1.02-0.66,1.8-1.92,1.8-3.5c0-1.66-0.37-2.69-1.43-3.4c-1.06-0.71-3.69-0.79-6.2-0.79H270.36z"/>
	<polygon class="st0" points="143.91,130.04 134.6,110.86 132.59,129.11 130.1,129.11 133.71,104.2 143.88,125.47 154.43,104.2 
		157.83,129.11 155.35,129.11 153.37,110.86 	"/>
	<polygon class="st0" points="13.69,130.04 4.45,110.86 2.46,129.11 0,129.11 3.57,104.2 13.65,125.47 24.1,104.2 27.48,129.11 
		25.02,129.11 23.06,110.86 	"/>
	<path class="st0" d="M204.99,117.04c0,1.71-0.32,3.34-0.96,4.87c-0.64,1.54-1.57,2.91-2.78,4.11c-1.23,1.21-2.62,2.14-4.17,2.77
		c-1.55,0.63-3.18,0.95-4.9,0.95c-1.72,0-3.35-0.32-4.89-0.95c-1.54-0.63-2.92-1.56-4.14-2.77c-1.22-1.23-2.15-2.6-2.79-4.13
		c-0.64-1.53-0.95-3.15-0.95-4.86c0-1.73,0.32-3.37,0.95-4.91c0.64-1.54,1.57-2.92,2.79-4.15c1.2-1.2,2.56-2.11,4.1-2.73
		c1.54-0.62,3.18-0.93,4.93-0.93c1.76,0,3.42,0.31,4.96,0.93c1.54,0.62,2.91,1.53,4.11,2.72c1.22,1.23,2.15,2.61,2.79,4.15
		C204.67,113.67,204.99,115.31,204.99,117.04 M192.18,127.78c1.42,0,2.76-0.26,4.02-0.79c1.26-0.53,2.4-1.3,3.42-2.32
		c0.99-1.03,1.75-2.19,2.28-3.5c0.53-1.31,0.79-2.68,0.79-4.13c0-1.46-0.26-2.83-0.78-4.13c-0.52-1.3-1.28-2.46-2.29-3.5
		c-0.99-1.02-2.12-1.79-3.39-2.32c-1.27-0.53-2.62-0.79-4.04-0.79c-1.42,0-2.75,0.26-4,0.79c-1.25,0.53-2.39,1.3-3.4,2.32
		c-1,1.05-1.76,2.22-2.29,3.5c-0.52,1.29-0.78,2.66-0.78,4.13c0,1.46,0.26,2.83,0.78,4.13c0.52,1.3,1.29,2.46,2.29,3.5
		c1,1.03,2.12,1.8,3.37,2.33S190.73,127.78,192.18,127.78"/>
	<path class="st0" d="M228.2,104.49h1.95v16.06c0,2.43,0.49,4.24,1.47,5.42c0.98,1.18,2.49,1.77,4.51,1.77
		c1.99,0,3.48-0.59,4.46-1.77c0.98-1.18,1.47-2.99,1.47-5.42v-16.06h1.98v15.34c0,3.33-0.65,5.81-1.96,7.45
		c-1.31,1.64-3.29,2.46-5.95,2.46c-2.67,0-4.66-0.82-5.97-2.46c-1.31-1.64-1.96-4.13-1.96-7.45V104.49z"/>
</g>
</svg>
