<?xml version="1.0" encoding="UTF-8"?>
<svg id="Layer_1" data-name="Layer 1" xmlns="http://www.w3.org/2000/svg" version="1.1" viewBox="0 0 50 50">
  <defs>
    <style>
      .cls-1 {
        fill: #fff;
        fill-rule: evenodd;
        stroke-width: 0px;
      }
    </style>
  </defs>
  <path class="cls-1" d="M25,0C11.2,0,0,11.2,0,25s11.2,25,25,25,25-11.2,25-25S38.8,0,25,0ZM25,48c-12.7,0-23-10.3-23-23S12.3,2,25,2s23,10.3,23,23-10.3,23-23,23Z"/>
  <path class="cls-1" d="M14.3,25c0-5.5,4.6-9.9,10.1-9.9s4.4.9,6,1.9c-2.5-3.2-6.2-4.6-9.9-4.6-6.9,0-12.6,5.6-12.6,12.6s5.6,12.6,12.6,12.6,7.5-1.6,9.9-4.7c-1.6,1-4,2-6,2-5.5,0-10.2-4.3-10.2-9.9Z"/>
  <polygon class="cls-1" points="39.4 25.1 42 21.2 37.8 22.6 35 18.9 35 23.5 30.6 24.9 35.1 26.5 35.1 31.1 37.8 27.3 42.1 28.7 39.4 25.1"/>
</svg>